<svg width="265" height="116" viewBox="0 0 265 116" fill="none" xmlns="http://www.w3.org/2000/svg">
<path d="M13.7045 93L25.2955 23.1818H52.8409C58.1136 23.1818 62.4545 24.1136 65.8636 25.9773C69.2955 27.8409 71.7045 30.4886 73.0909 33.9205C74.5 37.3295 74.8295 41.3523 74.0795 45.9886C73.3068 50.625 71.6364 54.6023 69.0682 57.9205C66.5227 61.2386 63.2045 63.7955 59.1136 65.5909C55.0455 67.3636 50.3295 68.25 44.9659 68.25H26.5227L28.5682 56.3864H44.5909C47.4091 56.3864 49.8182 56 51.8182 55.2273C53.8182 54.4545 55.3977 53.2955 56.5568 51.75C57.7386 50.2045 58.5114 48.2841 58.875 45.9886C59.2614 43.6477 59.125 41.6932 58.4659 40.125C57.8068 38.5341 56.6136 37.3295 54.8864 36.5114C53.1591 35.6705 50.8864 35.25 48.0682 35.25H38.1136L28.4659 93H13.7045ZM56.6591 61.2273L68.7614 93H52.4659L40.7386 61.2273H56.6591ZM76.9943 93L85.7216 40.6364H100.244L91.517 93H76.9943ZM94.483 33.8182C92.3239 33.8182 90.5398 33.1023 89.1307 31.6705C87.7443 30.2159 87.1761 28.4886 87.4261 26.4886C87.6761 24.4432 88.6534 22.7159 90.358 21.3068C92.0625 19.875 93.9943 19.1591 96.1534 19.1591C98.3125 19.1591 100.074 19.875 101.438 21.3068C102.801 22.7159 103.369 24.4432 103.142 26.4886C102.915 28.4886 101.949 30.2159 100.244 31.6705C98.5625 33.1023 96.642 33.8182 94.483 33.8182ZM160.696 40.6364L133.662 93H117.298L107.719 40.6364H122.514L127.151 78.1023H127.696L144.776 40.6364H160.696ZM181.44 94.0227C176.077 94.0227 171.634 92.9318 168.111 90.75C164.588 88.5455 162.111 85.4318 160.679 81.4091C159.27 77.3636 159.031 72.5795 159.963 67.0568C160.872 61.6705 162.702 56.9432 165.452 52.875C168.224 48.8068 171.702 45.6364 175.884 43.3636C180.065 41.0909 184.724 39.9545 189.861 39.9545C193.315 39.9545 196.44 40.5114 199.236 41.625C202.054 42.7159 204.395 44.375 206.259 46.6023C208.122 48.8068 209.395 51.5682 210.077 54.8864C210.781 58.2045 210.77 62.0909 210.043 66.5455L209.395 70.5341H165.213L166.611 61.5341H197.156C197.497 59.4432 197.361 57.5909 196.747 55.9773C196.134 54.3636 195.111 53.1023 193.679 52.1932C192.247 51.2614 190.486 50.7955 188.395 50.7955C186.259 50.7955 184.259 51.3182 182.395 52.3636C180.531 53.4091 178.963 54.7841 177.69 56.4886C176.44 58.1705 175.634 60 175.27 61.9773L173.668 70.9091C173.213 73.6591 173.304 75.9432 173.94 77.7614C174.599 79.5795 175.736 80.9432 177.349 81.8523C178.963 82.7386 181.009 83.1818 183.486 83.1818C185.099 83.1818 186.611 82.9545 188.02 82.5C189.452 82.0455 190.724 81.375 191.838 80.4886C192.952 79.5795 193.861 78.4545 194.565 77.1136L207.827 78C206.599 81.2273 204.736 84.0455 202.236 86.4545C199.736 88.8409 196.724 90.7045 193.202 92.0455C189.702 93.3636 185.781 94.0227 181.44 94.0227ZM251.761 40.6364L249.955 51.5455H218.386L220.227 40.6364H251.761ZM229.432 28.0909H243.955L235.841 76.9091C235.614 78.25 235.648 79.2955 235.943 80.0455C236.239 80.7727 236.727 81.2841 237.409 81.5795C238.114 81.875 238.955 82.0227 239.932 82.0227C240.614 82.0227 241.307 81.9659 242.011 81.8523C242.716 81.7159 243.25 81.6136 243.614 81.5455L244.159 92.3523C243.341 92.6023 242.239 92.875 240.852 93.1705C239.489 93.4659 237.875 93.6477 236.011 93.7159C232.466 93.8523 229.466 93.3864 227.011 92.3182C224.557 91.2273 222.795 89.5568 221.727 87.3068C220.659 85.0568 220.432 82.2273 221.045 78.8182L229.432 28.0909Z" fill="url(#paint0_linear_1_4)"/>
<defs>
<linearGradient id="paint0_linear_1_4" x1="132" y1="0" x2="132" y2="116" gradientUnits="userSpaceOnUse">
<stop stop-color="#78E7E0"/>
<stop offset="1" stop-color="#8372F1"/>
</linearGradient>
</defs>
</svg>
